<?xml-stylesheet href="bundle.css" type="text/css"?>
<svg viewBox="0 0 536 427" fill="none" xmlns="http://www.w3.org/2000/svg">
    <g filter="url(#filter0_d)">
        <path opacity="0.4" d="M414.678 369.902C457.001 369.902 491.311 349.037 491.311 323.299C491.311 297.56 457.001 276.695 414.678 276.695C372.355 276.695 338.046 297.56 338.046 323.299C338.046 349.037 372.355 369.902 414.678 369.902Z" fill="#2E92A3"/>
        <path d="M242.432 337.322C242.574 337.039 242.574 336.755 242.432 336.472V331.939L233.083 330.098C212.403 318.199 157.301 286.327 154.043 284.486C150.077 282.219 146.11 284.486 146.11 284.486C146.11 284.486 118.914 300.209 109.565 305.592L105.032 304.742V309.275C104.89 310.691 106.732 311.825 106.732 311.825C106.732 311.825 189.455 359.703 193.421 361.97C194.696 362.678 195.971 362.961 197.104 362.961C199.512 362.961 201.354 361.97 201.354 361.97L236.908 341.43C236.908 341.43 236.908 341.43 240.874 339.164C241.866 338.597 242.291 337.889 242.432 337.322Z" fill="url(#paint0_linear)"/>
        <path d="M236.908 336.897L201.354 357.437C201.354 357.437 197.388 359.703 193.421 357.437C189.455 355.17 106.732 307.292 106.732 307.292C106.732 307.292 102.766 305.026 106.732 302.759C110.698 300.493 146.11 279.953 146.11 279.953C146.11 279.953 150.077 277.687 154.043 279.953C158.009 282.22 240.732 330.098 240.732 330.098C240.732 330.098 244.699 332.364 240.732 334.631C236.908 336.897 236.908 336.897 236.908 336.897Z" fill="white"/>
        <path d="M225.009 325.565L154.043 284.627L114.664 307.292L185.631 348.229L225.009 325.565Z" fill="#9DD2F9"/>
        <path d="M224.443 333.073L223.735 332.648C222.743 332.081 221.468 332.081 220.477 332.648L200.221 344.263C199.371 344.688 199.371 345.963 200.221 346.388L200.504 346.53C201.637 347.238 203.054 347.238 204.187 346.53L224.301 334.914C225.293 334.489 225.293 333.498 224.443 333.073Z" fill="url(#paint1_linear)"/>
        <path d="M130.387 294.26C131.483 294.26 132.37 293.879 132.37 293.41C132.37 292.941 131.483 292.56 130.387 292.56C129.292 292.56 128.404 292.941 128.404 293.41C128.404 293.879 129.292 294.26 130.387 294.26Z" fill="#27405E"/>
        <path opacity="0.2" d="M152.768 279.386C149.227 278.111 146.11 279.953 146.11 279.953C146.11 279.953 110.556 300.492 106.732 302.759C102.766 305.025 106.732 307.292 106.732 307.292C106.732 307.292 189.455 355.17 193.421 357.436C194.413 358.003 195.405 358.286 196.396 358.428C182.231 332.789 162.542 297.093 152.768 279.386Z" fill="white"/>
        <path d="M87.0426 196.378V207.993L301.784 332.081L431.535 257.572V245.106L87.0426 196.378Z" fill="url(#paint2_linear)"/>
        <path d="M418.503 267.063L311.841 329.814C311.841 329.814 302.634 335.056 293.426 329.814C284.219 324.573 91.1506 212.951 91.1506 212.951C91.1506 212.951 81.9433 207.71 91.1506 202.328C100.358 196.945 207.02 134.334 207.02 134.334C207.02 134.334 216.227 128.952 225.434 134.334C234.642 139.576 427.71 251.198 427.71 251.198C427.71 251.198 436.917 256.439 427.71 261.821C418.503 267.063 418.503 267.063 418.503 267.063Z" fill="url(#paint3_linear)"/>
        <path d="M418.503 256.439L311.841 319.19C311.841 319.19 302.633 324.432 293.426 319.19C284.219 313.949 91.1503 202.327 91.1503 202.327C91.1503 202.327 81.9431 197.086 91.1503 191.704C100.358 186.321 207.02 123.71 207.02 123.71C207.02 123.71 216.227 118.328 225.434 123.71C234.641 128.952 427.71 240.574 427.71 240.574C427.71 240.574 436.917 245.815 427.71 251.197C418.503 256.439 418.503 256.439 418.503 256.439Z" fill="white"/>
        <path d="M412.554 242.557L225.434 134.476L109.423 202.469L296.826 310.55L412.554 242.557Z" fill="#9DD2F9"/>
        <path d="M162.684 164.507C165.187 164.507 167.216 163.619 167.216 162.523C167.216 161.428 165.187 160.54 162.684 160.54C160.18 160.54 158.151 161.428 158.151 162.523C158.151 163.619 160.18 164.507 162.684 164.507Z" fill="#17232B"/>
        <path opacity="0.2" d="M222.46 122.437C214.386 119.604 207.02 123.712 207.02 123.712C207.02 123.712 100.358 186.463 91.1507 191.705C81.9435 197.087 91.1507 202.329 91.1507 202.329C91.1507 202.329 284.219 313.809 293.426 319.192C295.835 320.608 298.101 321.175 300.367 321.458C267.221 261.681 245.266 163.799 222.46 122.437Z" fill="white"/>
        <path d="M352.069 227.825L276.286 271.454V265.221L352.069 221.593V227.825Z" fill="#0F7DA3"/>
        <path d="M352.069 221.593L254.614 165.357L178.973 208.986L276.286 265.221L352.069 221.593Z" fill="#D9C1A7"/>
        <path d="M276.286 271.454L178.973 215.218V208.986L276.286 265.222V271.454Z" fill="#004056"/>
        <path d="M352.069 202.611L276.286 246.381V240.149L352.069 196.378V202.611Z" fill="#0F7DA3"/>
        <path d="M178.973 183.913L276.286 240.149L352.069 196.378L254.614 140.143L178.973 183.913Z" fill="#00587F"/>
        <path d="M276.286 246.381L178.973 190.146V183.913L276.286 240.149V246.381Z" fill="#004056"/>
        <path d="M352.069 202.611C357.735 206.011 358.868 213.518 354.619 218.476L352.069 221.451L276.286 265.221L178.973 208.985V190.146L276.286 246.382L352.069 202.611Z" fill="white"/>
        <path d="M353.769 197.37L352.069 196.378V202.611C357.735 206.011 358.868 213.518 354.619 218.476L352.069 221.451V227.683L357.452 222.017C364.392 214.651 362.551 202.611 353.769 197.37Z" fill="#0F7DA3"/>
        <path d="M346.686 230.942V224.709L352.069 221.593V227.825L346.686 230.942Z" fill="#0F7DA3"/>
        <path opacity="0.3" d="M276.286 246.382V265.221L178.973 208.985V190.146L276.286 246.382Z" fill="#7474ED"/>
        <path d="M203.195 199.211L262.405 233.491V228.533L203.195 194.395V199.211Z" fill="#DB455A"/>
        <path d="M203.195 194.395L279.403 150.341L338.612 184.621L262.405 228.533L203.195 194.395Z" fill="#D9C1A7"/>
        <path d="M262.405 233.491L338.612 189.437V184.621L262.405 228.533V233.491Z" fill="#FC9DAB"/>
        <path d="M203.195 179.521L262.405 213.801V208.843L203.195 174.705V179.521Z" fill="#DB455A"/>
        <path d="M338.612 164.931L262.405 208.843L203.195 174.705L279.403 130.651L338.612 164.931Z" fill="#F27281"/>
        <path d="M262.405 213.801L338.612 169.747V164.931L262.405 208.843V213.801Z" fill="#FC9DAB"/>
        <path d="M203.195 179.521C198.804 182.071 197.813 188.162 201.212 191.987L203.195 194.395L262.405 228.675L338.612 184.621V169.889L262.405 213.943L203.195 179.521Z" fill="white"/>
        <path opacity="0.3" d="M203.195 179.521C198.804 182.071 197.813 188.162 201.212 191.987L203.195 194.395L262.405 228.675V213.943L203.195 179.521Z" fill="#7474ED"/>
        <path d="M201.779 175.413L203.195 174.563V179.38C198.804 181.929 197.813 188.02 201.212 191.845L203.195 194.253V199.069L199.087 194.536C193.563 188.87 194.838 179.521 201.779 175.413Z" fill="#DB455A"/>
        <path d="M232.8 177.255L283.511 147.65L309.008 162.523L258.439 191.845L232.8 177.255Z" fill="white"/>
        <path d="M333.23 176.264L277.986 208.135V203.461L333.23 171.731V176.264Z" fill="#FFC673"/>
        <path d="M333.23 171.731L262.263 130.652L207.02 162.523L277.986 203.461L333.23 171.731Z" fill="#D9C1A7"/>
        <path d="M277.986 208.135L207.02 167.056V162.523L277.986 203.461V208.135Z" fill="#E09220"/>
        <path d="M333.23 157.849L277.986 189.721V185.188L333.23 153.316V157.849Z" fill="#FFC673"/>
        <path d="M207.02 144.25L277.986 185.188L333.23 153.316L262.263 112.378L207.02 144.25Z" fill="#F7B03E"/>
        <path d="M277.986 189.721L207.02 148.783V144.25L277.986 185.188V189.721Z" fill="#E09220"/>
        <path d="M333.23 157.849C337.338 160.257 338.188 165.781 335.071 169.464L333.23 171.589L277.986 203.461L207.02 162.523V148.783L277.986 189.721L333.23 157.849Z" fill="white"/>
        <path d="M334.505 154.024L333.23 153.316V157.849C337.338 160.257 338.187 165.781 335.071 169.464L333.23 171.589V176.122L337.054 172.014C342.154 166.631 340.879 157.849 334.505 154.024Z" fill="#FFC673"/>
        <path d="M226.143 142.409L281.386 174.422L318.073 153.316L262.688 121.019L226.143 142.409Z" fill="#E09220"/>
        <path opacity="0.3" d="M277.986 203.461V189.721L207.02 148.783V162.523L277.986 203.461Z" fill="#7474ED"/>
        <path d="M348.528 101.188V104.871L269.629 150.342L190.872 104.871V101.188H348.528Z" fill="#455560"/>
        <path d="M225.718 113.653V141.275C225.718 155.724 245.548 167.481 270.054 167.481C294.559 167.481 314.39 155.724 314.39 141.275V113.653H225.718Z" fill="#27405E"/>
        <path d="M314.39 125.836L271.895 157.707C271.895 157.707 224.726 125.977 226.568 125.411C228.409 124.844 256.456 114.645 256.456 114.645L314.39 125.836Z" fill="#1E2B33"/>
        <path d="M190.872 104.871L269.629 59.2589L348.528 104.871L269.629 150.341L190.872 104.871Z" fill="#3A6691"/>
        <path d="M191 101.47L269.757 56L348.656 101.47L269.757 147.082L191 101.47Z" fill="#27405E"/>
        <path d="M269.629 150.342V146.8L190.872 101.188V104.871L269.629 150.342Z" fill="#1E2B33"/>
        <path d="M310.141 181.646H313.399C315.24 181.646 316.798 180.088 316.656 178.105L314.957 155.724C314.815 154.024 313.399 152.749 311.699 152.749C309.999 152.749 308.582 154.024 308.441 155.724L306.741 178.105C306.741 179.946 308.157 181.646 310.141 181.646Z" fill="#CC4051"/>
        <path d="M310.991 168.048H312.549V120.028L269.062 94.3887L268.213 95.8052L310.991 121.019V168.048Z" fill="#CC4051"/>
        <path d="M311.699 150.483C313.733 150.483 315.382 148.834 315.382 146.8C315.382 144.766 313.733 143.117 311.699 143.117C309.665 143.117 308.016 144.766 308.016 146.8C308.016 148.834 309.665 150.483 311.699 150.483Z" fill="#CC4051"/>
        <path opacity="0.4" d="M71.1778 295.251C96.6811 295.251 117.356 282.631 117.356 267.062C117.356 251.494 96.6811 238.874 71.1778 238.874C45.6745 238.874 25 251.494 25 267.062C25 282.631 45.6745 295.251 71.1778 295.251Z" fill="#2E92A3"/>
        <g  style="animation: float3 2s ease-in infinite;">
        <path d="M437.909 115.23C437.909 97.5235 427.285 77.2673 414.112 69.9014C413.262 69.3348 412.27 68.9098 411.42 68.6265C407.313 47.8036 394.706 27.2641 379.549 18.7649C369.917 13.3822 361.276 13.9488 355.185 19.3316C354.902 19.6149 354.619 19.7565 354.336 20.0398C354.052 20.3231 353.769 20.4648 353.486 20.7481C353.202 21.0314 352.919 21.173 352.636 21.4563C352.352 21.7396 352.069 21.8813 351.786 22.1646C351.503 22.4479 351.219 22.5896 350.936 22.8729C350.653 23.1562 350.369 23.2978 350.086 23.5811C349.803 23.8644 349.519 24.0061 349.236 24.2894C348.953 24.5727 348.67 24.7143 348.386 24.9976C345.837 26.9808 343.57 29.8138 342.012 33.4968C336.063 30.3804 330.68 30.947 326.997 34.3467C326.714 34.4883 326.431 34.7716 326.147 35.0549C325.864 35.1966 325.581 35.4799 325.297 35.7632C325.014 35.9049 324.731 36.1882 324.447 36.4715C324.164 36.6131 323.881 36.8964 323.598 37.1797C323.314 37.3214 323.031 37.6047 322.748 37.888C322.464 38.0296 322.181 38.3129 321.898 38.5962C321.614 38.7379 321.331 39.0212 321.048 39.3045C320.765 39.4462 320.481 39.7295 320.198 40.0128C316.373 42.9875 313.824 48.7952 313.824 56.7277C313.824 57.5776 313.824 58.4276 313.965 59.2775L429.976 124.296C429.976 123.871 429.976 123.588 429.976 123.163L430.685 123.588C430.685 123.163 430.685 122.879 430.685 122.454L431.393 122.879C431.393 122.454 431.393 122.171 431.393 121.746L432.101 122.171C432.101 121.746 432.101 121.463 432.101 121.038L432.809 121.463C432.809 121.038 432.809 120.755 432.809 120.33L433.518 120.755C433.518 120.33 433.518 120.046 433.518 119.621L434.226 120.046C434.226 119.621 434.226 119.338 434.226 118.913L434.934 119.338C434.934 118.913 434.934 118.63 434.934 118.205L435.642 118.63C435.642 118.205 435.642 117.921 435.642 117.497L436.351 117.921C437.909 116.788 437.909 116.08 437.909 115.23Z" fill="url(#paint4_linear)"/>
        <path d="M430.543 141.586C430.543 140.736 430.685 140.027 430.685 139.178C430.685 121.471 420.061 101.215 406.888 93.8489C406.038 93.2823 405.046 92.8573 404.196 92.574C400.088 71.8928 387.34 51.2116 372.325 42.8541C356.177 33.7883 342.72 41.7209 339.746 60.419C338.471 59.2857 337.054 58.4358 335.638 57.5859C324.023 51.0699 314.532 58.4358 314.532 74.1592C314.532 75.0091 314.532 75.859 314.674 76.709L430.543 141.586Z" fill="white"/>
        </g>
        <g style="animation: float6 4s ease-in-out infinite;">
        <path d="M89.1675 139.568C89.1675 121.862 99.7912 101.606 112.965 94.2397C113.815 93.6731 114.806 93.2481 115.656 92.9648C119.764 72.2836 132.512 51.6024 147.527 43.2449C157.159 37.8621 165.8 38.4288 171.891 43.8115C172.174 44.0948 172.458 44.2365 172.741 44.5198C173.024 44.8031 173.307 44.9448 173.591 45.2281C173.874 45.5114 174.157 45.653 174.441 45.9363C174.724 46.2196 175.007 46.3613 175.29 46.6446C175.574 46.9279 175.857 47.0695 176.14 47.3528C176.424 47.6361 176.707 47.7778 176.99 48.0611C177.274 48.3444 177.557 48.4861 177.84 48.7694C178.123 49.0527 178.407 49.1943 178.69 49.4776C181.24 51.4608 183.506 54.2938 185.064 57.9768C191.014 54.8604 196.396 55.427 200.079 58.8267C200.362 58.9683 200.646 59.2516 200.929 59.5349C201.212 59.6766 201.496 59.9599 201.779 60.2432C202.062 60.3848 202.346 60.6681 202.629 60.9514C202.912 61.0931 203.195 61.3764 203.479 61.6597C203.762 61.8014 204.045 62.0847 204.329 62.368C204.612 62.5096 204.895 62.7929 205.179 63.0762C205.462 63.2179 205.745 63.5012 206.028 63.7845C206.312 63.9261 206.595 64.2094 206.878 64.4928C210.703 67.4674 213.253 73.2752 213.253 81.2077C213.253 82.0576 213.253 82.9075 213.111 83.7574L96.5333 148.068C96.5333 147.643 96.5333 147.359 96.5333 146.934L95.825 147.359C95.825 146.934 95.825 146.651 95.825 146.226L94.9751 146.651C94.9751 146.226 94.9751 145.943 94.9751 145.518L94.2669 145.943C94.2669 145.518 94.2669 145.234 94.2669 144.81L93.5586 145.234C93.5586 144.81 93.5586 144.526 93.5586 144.101L92.8504 144.526C92.8504 144.101 92.8504 143.818 92.8504 143.393L92.1421 143.818C92.1421 143.393 92.1421 143.11 92.1421 142.685L91.4339 143.11C91.4339 142.685 91.4339 142.401 91.4339 141.976L90.7256 142.401C90.7256 141.976 90.7256 141.693 90.7256 141.268L90.0174 141.693C89.1675 141.268 89.1675 140.418 89.1675 139.568Z" fill="url(#paint5_linear)"/>
        <path d="M96.5331 148.068C96.5331 147.218 96.3915 146.51 96.3915 145.66C96.3915 127.953 107.015 107.697 120.189 100.331C121.039 99.7643 122.03 99.3394 122.88 99.0561C126.988 78.2332 139.736 57.6936 154.751 49.3361C170.899 40.2704 184.356 48.2029 187.331 66.901C188.605 65.7678 190.022 64.9179 191.438 64.068C203.054 57.552 212.544 64.9179 212.544 80.6413C212.544 81.4912 212.544 82.3411 212.403 83.191L96.5331 148.068Z" fill="white"/>
        </g>
        <path d="M81.5181 200.911L39.4481 215.076V268.054C39.4481 278.82 53.7547 287.46 71.3193 287.46C88.8839 287.46 103.19 278.82 103.19 268.054V215.076L81.5181 200.911Z" fill="url(#paint6_linear)"/>
        <path d="M71.1777 234.483C88.7797 234.483 103.049 225.794 103.049 215.076C103.049 204.358 88.7797 195.67 71.1777 195.67C53.5757 195.67 39.3065 204.358 39.3065 215.076C39.3065 225.794 53.5757 234.483 71.1777 234.483Z" fill="url(#paint7_linear)"/>
        <path d="M44.1226 225.275C49.7886 230.8 59.8457 234.483 71.3194 234.483C82.793 234.483 92.8501 230.8 98.5161 225.275C98.9411 224.142 99.0827 223.009 99.0827 221.734C99.0827 212.385 86.6175 204.877 71.3194 204.877C56.0212 204.877 43.556 212.385 43.556 221.734C43.556 223.009 43.6977 224.142 44.1226 225.275Z" fill="#5B3127"/>
        <path d="M71.1777 197.936C87.1841 197.936 100.782 205.869 100.782 215.076C100.782 224.425 87.1841 232.216 71.1777 232.216C55.1713 232.216 41.5729 224.284 41.5729 215.076C41.5729 205.727 55.1713 197.936 71.1777 197.936ZM71.1777 195.67C53.6131 195.67 39.3065 204.311 39.3065 215.076C39.3065 225.842 53.6131 234.483 71.1777 234.483C88.7423 234.483 103.049 225.842 103.049 215.076C103.049 204.311 88.8839 195.67 71.1777 195.67Z" fill="white"/>
        <path d="M98.3745 236.466L97.2413 235.757V241.14C102.624 244.823 106.024 250.914 106.024 257.43C106.024 259.555 105.315 261.396 104.041 262.955C103.616 262.955 103.191 263.096 102.766 263.096V267.771C105.032 267.771 107.298 267.204 109.423 265.929C113.531 263.521 116.081 259.13 116.081 254.314C110.556 248.931 105.882 240.857 98.3745 236.466Z" fill="url(#paint8_linear)"/>
        <path d="M92.8501 239.582L91.7169 238.874V244.256C97.0996 247.939 100.499 254.03 100.499 260.546C100.499 263.663 98.9411 266.496 96.1081 268.054C94.6916 268.904 93.2751 269.187 91.7169 269.187V273.862C93.9833 273.862 96.2497 273.295 98.3745 272.02C102.482 269.612 105.032 265.221 105.032 260.405C105.032 252.047 100.358 243.973 92.8501 239.582Z" fill="white"/>
        <path d="M321.331 332.789L431.251 269.329L508.167 313.666L398.247 377.126L321.331 332.789Z" fill="white"/>
        <path d="M398.955 358.145C405.605 358.145 410.995 355.354 410.995 351.912C410.995 348.47 405.605 345.679 398.955 345.679C392.306 345.679 386.915 348.47 386.915 351.912C386.915 355.354 392.306 358.145 398.955 358.145Z" fill="#F27281"/>
        <path d="M485.877 312.201L431.46 280.387L430.03 282.833L484.448 314.647L485.877 312.201Z" fill="#27405E"/>
        <path d="M475.925 318.898L420.208 287.064L418.803 289.524L474.519 321.358L475.925 318.898Z" fill="#27405E"/>
        <path d="M464.953 324.325L409.991 293.753L408.614 296.228L463.576 326.801L464.953 324.325Z" fill="#27405E"/>
        <path d="M452.792 330.621L398.378 299.648L396.977 302.11L451.39 333.084L452.792 330.621Z" fill="#27405E"/>
        <path d="M442.942 337.899L387.94 305.965L386.517 308.415L441.519 340.349L442.942 337.899Z" fill="#27405E"/>
        <path d="M431.938 344.385L377.521 312.571L376.091 315.017L430.508 346.831L431.938 344.385Z" fill="#27405E"/>
        <path d="M438.192 262.53L477.004 240.149L511 259.697L476.862 279.386L467.372 279.245L438.192 262.53Z" fill="white"/>
        <path d="M472.188 273.72L467.372 279.245L476.862 279.386L472.188 273.72Z" fill="#27405E"/>
        <path d="M218.352 375.143L257.164 352.762L291.16 372.452L257.022 392H247.532L218.352 375.143Z" fill="#F27281"/>
        <path d="M252.348 386.476L247.532 392H257.022L252.348 386.476Z" fill="#DB455A"/>
        <path d="M351.786 361.119L312.974 338.738L279.12 358.428L313.115 377.976H322.606L351.786 361.119Z" fill="#E5CF36"/>
        <path d="M317.79 372.452L322.606 377.976H313.115L317.79 372.452Z" fill="#A2923C"/>
        <g  style="animation: float2 6s ease-in-out infinite;">
        <path d="M449.383 144.972L380.541 106.159C379.691 105.593 378.841 105.593 378.133 105.876C377.991 105.876 377.991 105.876 377.849 106.018C377.708 106.018 377.708 106.018 377.566 106.159C377.424 106.159 377.424 106.159 377.283 106.301C377.141 106.301 377.141 106.301 377 106.443C376.858 106.443 376.858 106.443 376.716 106.584C376.575 106.584 376.575 106.584 376.433 106.726C376.291 106.726 376.291 106.726 376.15 106.868C376.008 106.868 376.008 106.868 375.866 107.009C375.725 107.009 375.725 107.009 375.583 107.151C375.441 107.151 375.441 107.151 375.3 107.293C375.158 107.293 375.158 107.293 375.016 107.434C374.875 107.434 374.875 107.434 374.733 107.576C374.591 107.576 374.591 107.576 374.45 107.718C374.308 107.718 374.308 107.718 374.167 107.859C374.025 107.859 374.025 107.859 373.883 108.001C373.742 108.001 373.742 108.001 373.6 108.142C373.458 108.142 373.458 108.142 373.317 108.284C373.175 108.284 373.175 108.284 373.033 108.426C372.892 108.426 372.892 108.426 372.75 108.567C372.608 108.567 372.608 108.567 372.467 108.709C372.325 108.709 372.325 108.709 372.183 108.851C372.042 108.851 372.042 108.851 371.9 108.992C371.758 108.992 371.758 108.992 371.617 109.134C371.475 109.134 371.475 109.134 371.334 109.276C371.192 109.276 371.192 109.276 371.05 109.417C370.909 109.417 370.909 109.417 370.767 109.559C370.625 109.559 370.625 109.559 370.484 109.701C370.342 109.701 370.342 109.701 370.2 109.842C370.059 109.842 370.059 109.842 369.917 109.984C369.775 109.984 369.775 109.984 369.634 110.126C368.076 110.551 366.942 112.817 366.942 116.075V178.685C366.942 183.36 369.209 188.459 371.9 190.017L381.674 195.825V213.39L381.957 213.107V213.248L382.241 212.965V213.107L382.524 212.823V212.965L382.807 212.682V212.823L383.09 212.54V212.682L383.374 212.398V212.54L383.657 212.257V212.398L383.94 212.115V212.257L384.224 211.974V212.115L384.507 211.832V211.974L384.79 211.69V211.832L385.074 211.549V211.69L385.357 211.407V211.549L385.64 211.265V211.407L385.923 211.124V211.265L386.207 210.982V211.124L386.49 210.84V210.982L386.773 210.699V210.84L387.057 210.557V210.699L387.34 210.415V210.557L387.623 210.274V210.415L387.907 210.132V210.274L388.19 209.99V210.132L388.473 209.849V209.99L388.756 209.707V209.849L389.04 209.565V209.707L389.323 209.424V209.565L389.606 209.282V209.424L389.89 209.14V209.282L390.173 208.999V209.14L390.456 208.857V208.999L398.53 201.775L443.575 225.43C444.425 225.997 445.275 225.997 445.983 225.714C446.125 225.714 446.125 225.714 446.266 225.572C446.408 225.572 446.408 225.572 446.55 225.43C451.507 223.447 454.482 223.589 454.482 217.215V156.446C454.199 151.771 452.074 146.672 449.383 144.972Z" fill="white"/>
        <path d="M443.433 147.522L372.75 108.709C370.059 107.151 367.792 109.559 367.792 114.234V176.844C367.792 181.519 370.059 186.618 372.75 188.176L382.524 193.984V213.39L395.414 201.775L443.433 227.131C446.125 228.689 448.391 226.281 448.391 221.606V158.996C448.249 154.321 446.125 149.222 443.433 147.522Z" fill="#9DD2F9"/>
        <path d="M393.997 162.679C393.997 165.087 392.864 166.504 391.448 165.654C390.031 164.804 388.898 162.112 388.898 159.704C388.898 157.296 390.031 155.88 391.448 156.73C392.723 157.58 393.997 160.271 393.997 162.679Z" fill="#27405E"/>
        <path d="M409.296 171.744C409.296 174.153 408.163 175.569 406.746 174.719C405.33 173.869 404.196 171.178 404.196 168.77C404.196 166.362 405.33 164.945 406.746 165.795C408.163 166.645 409.296 169.336 409.296 171.744Z" fill="#27405E"/>
        <path d="M424.594 180.811C424.594 183.219 423.461 184.635 422.044 183.785C420.628 182.935 419.494 180.244 419.494 177.836C419.494 175.428 420.628 174.011 422.044 174.861C423.461 175.711 424.594 178.403 424.594 180.811Z" fill="#27405E"/>
        </g>
    </g>
    <defs>
        <filter id="filter0_d" x="0" y="0" width="536" height="427" filterUnits="userSpaceOnUse" color-interpolation-filters="sRGB">
            <feFlood flood-opacity="0" result="BackgroundImageFix"/>
            <feColorMatrix in="SourceAlpha" type="matrix" values="0 0 0 0 0 0 0 0 0 0 0 0 0 0 0 0 0 0 127 0"/>
            <feOffset dy="10"/>
            <feGaussianBlur stdDeviation="12.5"/>
            <feColorMatrix type="matrix" values="0 0 0 0 0 0 0 0 0 0 0 0 0 0 0 0 0 0 0.1 0"/>
            <feBlend mode="normal" in2="BackgroundImageFix" result="effect1_dropShadow"/>
            <feBlend mode="normal" in="SourceGraphic" in2="effect1_dropShadow" result="shape"/>
        </filter>
        <linearGradient id="paint0_linear" x1="105.027" y1="323.203" x2="242.56" y2="323.203" gradientUnits="userSpaceOnUse">
            <stop stop-color="white"/>
            <stop offset="1" stop-color="#B8D0F2"/>
        </linearGradient>
        <linearGradient id="paint1_linear" x1="199.795" y1="339.642" x2="225.063" y2="339.642" gradientUnits="userSpaceOnUse">
            <stop stop-color="white"/>
            <stop offset="1" stop-color="#B8D0F2"/>
        </linearGradient>
        <linearGradient id="paint2_linear" x1="87.0757" y1="264.249" x2="431.599" y2="264.249" gradientUnits="userSpaceOnUse">
            <stop stop-color="white"/>
            <stop offset="1" stop-color="#B8D0F2"/>
        </linearGradient>
        <linearGradient id="paint3_linear" x1="87.0205" y1="232.006" x2="431.758" y2="232.006" gradientUnits="userSpaceOnUse">
            <stop stop-color="white"/>
            <stop offset="1" stop-color="#B8D0F2"/>
        </linearGradient>
        <linearGradient id="paint4_linear" x1="314.502" y1="69.3634" x2="437.943" y2="69.3634" gradientUnits="userSpaceOnUse">
            <stop stop-color="white"/>
            <stop offset="1" stop-color="#B8D0F2"/>
        </linearGradient>
        <linearGradient id="paint5_linear" x1="212.6" y1="93.7676" x2="89.1591" y2="93.7676" gradientUnits="userSpaceOnUse">
            <stop stop-color="white"/>
            <stop offset="1" stop-color="#B8D0F2"/>
        </linearGradient>
        <linearGradient id="paint6_linear" x1="96.4371" y1="162.085" x2="46.9496" y2="319.971" gradientUnits="userSpaceOnUse">
            <stop stop-color="white"/>
            <stop offset="1" stop-color="#B8D0F2"/>
        </linearGradient>
        <linearGradient id="paint7_linear" x1="39.3453" y1="215.086" x2="103.114" y2="215.086" gradientUnits="userSpaceOnUse">
            <stop stop-color="white"/>
            <stop offset="1" stop-color="#B8D0F2"/>
        </linearGradient>
        <linearGradient id="paint8_linear" x1="101.601" y1="278.729" x2="100.681" y2="250.367" gradientUnits="userSpaceOnUse">
            <stop stop-color="white"/>
            <stop offset="1" stop-color="#B8D0F2"/>
        </linearGradient>
    </defs>
</svg>
